<svg width="18" height="18" viewBox="0 0 18 18" fill="none" xmlns="http://www.w3.org/2000/svg">
<path d="M8.99999 2.99995C10.575 2.99995 12.075 3.59995 13.2 4.72495C15.525 7.04995 15.525 10.875 13.2 13.2C11.85 14.625 9.97499 15.15 8.17499 14.925L8.54999 13.425C9.82499 13.575 11.175 13.125 12.15 12.15C13.875 10.425 13.875 7.57495 12.15 5.77495C11.325 4.94995 10.125 4.49995 8.99999 4.49995V7.94995L5.24999 4.19995L8.99999 0.449951V2.99995ZM4.72499 13.2C2.77499 11.25 2.47499 8.24995 3.82499 5.92495L4.94999 7.04995C4.12499 8.69995 4.42499 10.8 5.84999 12.15C6.22499 12.525 6.67499 12.825 7.19999 13.05L6.74999 14.55C5.99999 14.25 5.32499 13.8 4.72499 13.2Z" fill="white"/>
</svg>
